<svg xmlns="http://www.w3.org/2000/svg" width="42" height="42" viewBox="0 0 42 42"><defs><style>.a{fill:none;}.b{fill:#2e2e2e;}</style></defs><g transform="translate(3963 -655)"><rect class="a" width="42" height="42" transform="translate(-3963 655)"/><path class="b" d="M810.375,521c-.1,0-.2.012-.3.015a11.369,11.369,0,0,0,.3,22.735c.1,0,.2-.012.3-.015a11.369,11.369,0,0,0-.3-22.735Zm8.563,7h-3.661a14.165,14.165,0,0,0-1.491-4.614A9.668,9.668,0,0,1,818.938,528Zm-11.023-2.54c.375-1.012,1.193-2.71,2.461-2.71,1.386,0,2.556,2.112,3.126,5.25h-6.25A15.213,15.213,0,0,1,807.914,525.46Zm-.972-2.066a10.062,10.062,0,0,0-.669,1.459,17.4,17.4,0,0,0-.8,3.147h-3.661A9.665,9.665,0,0,1,806.942,523.394Zm-5.82,6.356h4.126c-.079.848-.124,1.725-.124,2.625,0,.882.045,1.762.124,2.625h-4.126a9.428,9.428,0,0,1,0-5.25Zm.689,7h3.661a14.165,14.165,0,0,0,1.491,4.614A9.668,9.668,0,0,1,801.812,536.75Zm11.023,2.54c-.375,1.012-1.193,2.71-2.461,2.71-1.386,0-2.556-2.112-3.126-5.25h6.25A15.213,15.213,0,0,1,812.836,539.29Zm-5.83-4.29c-.083-.833-.13-1.71-.13-2.625a26.17,26.17,0,0,1,.133-2.625h6.737c.083.833.13,1.71.13,2.625a26.17,26.17,0,0,1-.133,2.625Zm6.8,6.356a9.974,9.974,0,0,0,.669-1.459,17.332,17.332,0,0,0,.8-3.147h3.661A9.665,9.665,0,0,1,813.808,541.356ZM815.5,535c.079-.848.124-1.725.124-2.625,0-.882-.045-1.762-.124-2.625h4.126a9.428,9.428,0,0,1,0,5.25Z" transform="translate(-4752 144)"/></g></svg>