<svg xmlns="http://www.w3.org/2000/svg" width="37" height="37" viewBox="0 0 37 37"><defs><style>.a,.b{fill:none;stroke-miterlimit:10;}.a{stroke:#fff;stroke-width:3px;}.c,.d{stroke:none;}.d{fill:#fff;}</style></defs><g transform="translate(-205.5 -5073.5)"><g transform="translate(0 0.179)"><path class="a" d="M1252.253,783.972v-4.693a2.833,2.833,0,0,1,2.833-2.833h4.682" transform="translate(-1045.253 4298.375)"/><path class="a" d="M1306.505,783.972v-4.693a2.834,2.834,0,0,0-2.833-2.833h-4.683" transform="translate(-1065.505 4298.375)"/><path class="a" d="M1252.253,823.165v4.693a2.833,2.833,0,0,0,2.833,2.833h4.682" transform="translate(-1045.253 4278.131)"/><path class="a" d="M1306.505,823.165v4.693a2.833,2.833,0,0,1-2.833,2.833h-4.683" transform="translate(-1065.505 4278.131)"/></g><g transform="translate(213.268 5080.291)"><g transform="translate(-2.267 -2.291)"><g class="b" transform="translate(-1264.014 -787.071)"><path class="c" d="M1289.095,807.709l-12.15,7.532-12.932-7.532V792.946l12.541-5.875,12.541,5.875Z"/><path class="d" d="M 1276.896850585938 811.7409057617188 L 1286.094604492188 806.038818359375 L 1286.094604492188 794.853759765625 L 1276.554077148438 790.38427734375 L 1267.013427734375 794.853759765625 L 1267.013427734375 805.9843139648438 L 1276.896850585938 811.7409057617188 M 1276.945068359375 815.24072265625 L 1264.013427734375 807.708740234375 L 1264.013427734375 792.9462890625 L 1276.554077148438 787.0714111328125 L 1289.094604492188 792.9462890625 L 1289.094604492188 807.708740234375 L 1276.945068359375 815.24072265625 Z"/></g><path class="a" d="M1265.516,796.3l11.545,7.13,11.423-7.13" transform="translate(-1264.46 -789.813)"/><line class="a" y1="12.388" transform="translate(12.541 14.084)"/></g></g></g></svg>