<svg xmlns="http://www.w3.org/2000/svg" width="101.217" height="30" viewBox="0 0 101.217 30"><defs><style>.a{fill:#d54725;}</style></defs><path class="a" d="M551.21-278.858s-9.536-.477-12.02,11.053c-.529,2.466-1.288,10.553,8.406,11.448a14.074,14.074,0,0,0,8.8-2.089l1.295-3.564a15.084,15.084,0,0,1-8.179,2.133c-4.559-.135-5.776-3.076-5.389-6.28h14.42s1.116-4.579.109-7.921c-1.274-4.212-5.15-4.781-7.443-4.781m3.149,9.289h-9.447s1.627-5.326,6.192-5.336c4.122-.007,3.371,4.169,3.255,5.336m13.049,5.537,1.749-8.884H573.8l1.335-3.458h-5.309l.834-3.986s.2-.822-.677-.641a14.533,14.533,0,0,0-4.938,2.148l-.537,2.588h-3.159l-1.365,3.488h3.844s-1.935,9.758-2.108,10.661c-.207,1.021-1.141,5.86,5.181,5.8a8.141,8.141,0,0,0,4.994-1.518l1.049-2.645a7.805,7.805,0,0,1-3.718,1.1c-2.721,0-2.282-2.421-1.817-4.651M586.433-278.7s-3.549-.092-8.183,2.73l-1.368,3.59a19.02,19.02,0,0,1,8.293-2.543c1.86-.083,3.912.187,3.862,2.1a12.1,12.1,0,0,1-.469,2.514s-15.042-.8-14.847,9.055c.051,2.7,2.434,4.942,6.153,4.952a9.317,9.317,0,0,0,6.505-2.426h.036l-.564,2.637,5.469-1.7s2.236-10.984,2.569-12.716c.2-1.08,1.884-8.357-7.456-8.195m.246,16.216a5.96,5.96,0,0,1-5.137,2.579c-3.4,0-3.25-2.579-3.25-2.579.261-5.025,9.739-4.525,9.739-4.525a10.9,10.9,0,0,1-1.352,4.525m-59.827-7.308h5.717l-.031.163s-1.388,6.845-1.48,7.269c-2.586,2.026-12.956,3.477-12.8-6.446.117-7.611,5.268-11.3,8.19-12.261a17.058,17.058,0,0,1,5.738-.864c.949,0,1.827.044,2.99.13l1.566-3.977a40.057,40.057,0,0,0-5.175-.311,19.816,19.816,0,0,0-12.881,4.291,17.193,17.193,0,0,0-6.268,13.271c-.066,3.421,1.442,12.322,12.638,12.433,4.736.053,8.6-1.4,11.054-4.119l2.554-12.977H528.2Z" transform="translate(-512.411 286.087)"/><path class="a" d="M612.553-259.159c-4.193.033-5.977-2.213-5.828-5.622,0,0,.075-9.7,9.268-10a14.61,14.61,0,0,1,3.094.157l1.271-3.185a21.288,21.288,0,0,0-4.413-.472c-2.162.03-14.027.872-14.484,13.83,0,0-.636,8.283,9.139,8.871a14.25,14.25,0,0,0,8.507-2.175l1.3-3.584a14.529,14.529,0,0,1-7.852,2.182" transform="translate(-519.188 285.357)"/></svg>